<svg width="24" height="576" viewBox="0 0 24 576" fill="none" xmlns="http://www.w3.org/2000/svg">
<path d="M20 8C20 12.4183 16.4183 16 12 16C7.58172 16 4 12.4183 4 8C4 3.58172 7.58172 0 12 0C16.4183 0 20 3.58172 20 8Z" fill="#2C303C"/>
<path d="M23.5 120C23.5 126.351 18.3513 131.5 12 131.5C5.64873 131.5 0.5 126.351 0.5 120C0.5 113.649 5.64873 108.5 12 108.5C18.3513 108.5 23.5 113.649 23.5 120Z" stroke="#2C303C"/>
<path d="M20 120C20 124.418 16.4183 128 12 128C7.58172 128 4 124.418 4 120C4 115.582 7.58172 112 12 112C16.4183 112 20 115.582 20 120Z" fill="#D31218"/>
<path d="M20 64C20 68.4183 16.4183 72 12 72C7.58172 72 4 68.4183 4 64C4 59.5817 7.58172 56 12 56C16.4183 56 20 59.5817 20 64Z" fill="#2C303C"/>
<path d="M20 176C20 180.418 16.4183 184 12 184C7.58172 184 4 180.418 4 176C4 171.582 7.58172 168 12 168C16.4183 168 20 171.582 20 176Z" fill="#2C303C"/>
<path d="M20 232C20 236.418 16.4183 240 12 240C7.58172 240 4 236.418 4 232C4 227.582 7.58172 224 12 224C16.4183 224 20 227.582 20 232Z" fill="#2C303C"/>
<path d="M20 288C20 292.418 16.4183 296 12 296C7.58172 296 4 292.418 4 288C4 283.582 7.58172 280 12 280C16.4183 280 20 283.582 20 288Z" fill="#2C303C"/>
<path d="M20 344C20 348.418 16.4183 352 12 352C7.58172 352 4 348.418 4 344C4 339.582 7.58172 336 12 336C16.4183 336 20 339.582 20 344Z" fill="#2C303C"/>
<path d="M20 400C20 404.418 16.4183 408 12 408C7.58172 408 4 404.418 4 400C4 395.582 7.58172 392 12 392C16.4183 392 20 395.582 20 400Z" fill="#2C303C"/>
<path d="M20 456C20 460.418 16.4183 464 12 464C7.58172 464 4 460.418 4 456C4 451.582 7.58172 448 12 448C16.4183 448 20 451.582 20 456Z" fill="#2C303C"/>
<path d="M20 512C20 516.418 16.4183 520 12 520C7.58172 520 4 516.418 4 512C4 507.582 7.58172 504 12 504C16.4183 504 20 507.582 20 512Z" fill="#2C303C"/>
<path d="M20 568C20 572.418 16.4183 576 12 576C7.58172 576 4 572.418 4 568C4 563.582 7.58172 560 12 560C16.4183 560 20 563.582 20 568Z" fill="#2C303C"/>
<path d="M12.3536 78.6464C12.1583 78.4512 11.8417 78.4512 11.6464 78.6464L8.46447 81.8284C8.2692 82.0237 8.2692 82.3403 8.46447 82.5355C8.65973 82.7308 8.97631 82.7308 9.17157 82.5355L12 79.7071L14.8284 82.5355C15.0237 82.7308 15.3403 82.7308 15.5355 82.5355C15.7308 82.3403 15.7308 82.0237 15.5355 81.8284L12.3536 78.6464ZM12.5 103L12.5 79H11.5L11.5 103H12.5Z" fill="#2C303C"/>
<path d="M11.6464 162.354C11.8417 162.549 12.1583 162.549 12.3536 162.354L15.5355 159.172C15.7308 158.976 15.7308 158.66 15.5355 158.464C15.3403 158.269 15.0237 158.269 14.8284 158.464L12 161.293L9.17157 158.464C8.97631 158.269 8.65973 158.269 8.46447 158.464C8.2692 158.66 8.2692 158.976 8.46447 159.172L11.6464 162.354ZM11.5 138V162H12.5V138H11.5Z" fill="#2C303C"/>
<line x1="12.5" y1="25" x2="12.5" y2="49" stroke="#2C303C"/>
<line x1="12.5" y1="192" x2="12.5" y2="216" stroke="#2C303C"/>
<line x1="12.5" y1="248" x2="12.5" y2="272" stroke="#2C303C"/>
<line x1="12.5" y1="304" x2="12.5" y2="328" stroke="#2C303C"/>
<line x1="12.5" y1="360" x2="12.5" y2="384" stroke="#2C303C"/>
<line x1="12.5" y1="416" x2="12.5" y2="440" stroke="#2C303C"/>
<line x1="12.5" y1="472" x2="12.5" y2="496" stroke="#2C303C"/>
<line x1="12.5" y1="528" x2="12.5" y2="552" stroke="#2C303C"/>
</svg>
